<?xml version="1.0" encoding="UTF-8"?>
<svg xmlns="http://www.w3.org/2000/svg" viewBox="0 0 1529.23 302.94">
  <defs>
    <style>
      .cls-1, .cls-2, .cls-3 {
        fill-rule: evenodd;
      }

      .cls-1, .cls-4, .cls-5 {
        fill: #aec90b;
      }

      .cls-2, .cls-6 {
        fill: #004993;
      }

      .cls-7 {
        isolation: isolate;
      }

      .cls-5, .cls-8 {
        mix-blend-mode: multiply;
      }

      .cls-8, .cls-3 {
        fill: #ffcb00;
      }
    </style>
  </defs>
  <g class="cls-7">
    <g id="Camada_2" data-name="Camada 2">
      <g id="Camada_1-2" data-name="Camada 1">
        <g>
          <g>
            <path class="cls-2" d="M742.32,134.16c-2.15,3.5-5.87,6.35-11.16,8.59-5.29,2.21-10.81,3.34-16.58,3.34-10.84,0-19.34-2.73-25.56-8.15-6.19-5.42-9.3-13.12-9.3-23.06,0-11.64,4.39-20.78,13.12-27.36,8.76-6.57,21.17-9.85,37.27-9.85,2.76,0,6,.45,9.75,1.41,0-11.83-7.47-17.77-22.45-17.77-8.82,0-16.23,1.48-22.16,4.43l-5.07-18.25c8.08-3.88,17.67-5.81,28.83-5.81,15.36,0,26.59,3.5,33.74,10.46,7.12,6.99,10.71,20.24,10.71,39.7v21.52c0,13.41,2.69,21.84,8.08,25.27-1.96,3.4-4.11,5.48-6.48,6.25-2.41.77-5.13,1.19-8.18,1.19-3.4,0-6.41-1.25-9.11-3.78-2.69-2.5-4.52-5.23-5.45-8.15h0ZM740.04,96.83c-4.01-.8-6.99-1.22-9.01-1.22-18.54,0-27.81,6.09-27.81,18.25,0,9.01,5.23,13.53,15.68,13.53,14.11,0,21.13-7.06,21.13-21.17v-9.4h0Z"/>
            <path class="cls-2" d="M805.44,138.65l-5.26,7.44h-13.25V6.07l23.48-5.61v46.95c6.29-3.82,13.12-5.71,20.49-5.71,14.72,0,26.59,4.65,35.6,13.95,9.04,9.3,13.53,21.2,13.53,35.76,0,16.84-4.52,30.15-13.63,39.96-9.08,9.81-21.39,14.72-36.91,14.72-9.33,0-17.35-2.5-24.05-7.44h0ZM810.41,67.52v52.53c3.46,4.07,8.11,6.09,14.02,6.09,11.32,0,19.37-2.66,24.09-8.05,4.75-5.39,7.12-14.02,7.12-25.85,0-20.43-9.78-30.63-29.35-30.63-6.93,0-12.22,1.96-15.88,5.9h0Z"/>
            <path class="cls-2" d="M958.87,65.46c-4.2-2.76-8.79-4.14-13.82-4.14-5.45,0-10.26,2.47-14.5,7.41-4.23,4.97-6.35,11-6.35,18.15v57.31h-23.48V43.56h23.48v9.2c6.57-7.38,15.3-11.06,26.2-11.06,8.02,0,14.18,1.22,18.44,3.66l-9.97,20.11h0Z"/>
            <path class="cls-2" d="M1032.92,134.16c-2.15,3.5-5.87,6.35-11.16,8.59-5.29,2.21-10.81,3.34-16.58,3.34-10.84,0-19.34-2.73-25.56-8.15-6.19-5.42-9.3-13.12-9.3-23.06,0-11.64,4.39-20.78,13.12-27.36,8.76-6.57,21.17-9.85,37.27-9.85,2.76,0,6,.45,9.75,1.41,0-11.83-7.47-17.77-22.45-17.77-8.82,0-16.23,1.48-22.16,4.43l-5.07-18.25c8.08-3.88,17.67-5.81,28.83-5.81,15.36,0,26.59,3.5,33.74,10.46,7.12,6.99,10.71,20.24,10.71,39.7v21.52c0,13.41,2.69,21.84,8.08,25.27-1.96,3.4-4.11,5.48-6.48,6.25-2.41.77-5.13,1.19-8.18,1.19-3.4,0-6.41-1.25-9.11-3.78-2.69-2.5-4.52-5.23-5.45-8.15h0ZM1030.64,96.83c-4.01-.8-6.99-1.22-9.01-1.22-18.54,0-27.81,6.09-27.81,18.25,0,9.01,5.23,13.53,15.68,13.53,14.11,0,21.13-7.06,21.13-21.17v-9.4h0Z"/>
            <polygon class="cls-2" points="1121.11 146.09 1112.68 146.09 1067.2 43.56 1092.92 43.56 1116.98 105.01 1142.83 43.56 1167.71 43.56 1121.11 146.09 1121.11 146.09"/>
            <path class="cls-2" d="M1205.33,4.56c3.75,0,6.96,1.35,9.62,4.01,2.66,2.66,4.01,5.87,4.01,9.62s-1.35,6.99-4.01,9.65c-2.66,2.66-5.87,3.98-9.62,3.98s-6.99-1.32-9.65-3.98c-2.66-2.66-3.98-5.9-3.98-9.65s1.31-6.96,3.98-9.62c2.66-2.66,5.9-4.01,9.65-4.01h0ZM1193.21,144.2V62.83h-12.89v-19.28h36.66v100.64h-23.76Z"/>
            <path class="cls-2" d="M1309.05,144.2v-6.09c-1.92,2.12-5.23,3.98-9.88,5.58-4.62,1.6-9.4,2.41-14.37,2.41-14.02,0-25.08-4.46-33.13-13.34-8.02-8.92-12.06-21.29-12.06-37.23s4.62-28.83,13.85-38.84c9.24-10.01,20.81-14.98,34.73-14.98,7.63,0,14.59,1.57,20.85,4.68V6.07l23.48-5.61v143.74h-23.48ZM1309.05,67.61c-5-4.01-10.23-6-15.68-6-9.4,0-16.65,2.85-21.71,8.6-5.07,5.74-7.6,13.95-7.6,24.66,0,20.91,10.07,31.37,30.24,31.37,2.25,0,5.04-.67,8.31-2.02,3.3-1.35,5.45-2.69,6.45-4.07v-52.53h0Z"/>
            <path class="cls-2" d="M1414.18,65.46c-4.2-2.76-8.79-4.14-13.82-4.14-5.45,0-10.26,2.47-14.5,7.41-4.23,4.97-6.35,11-6.35,18.15v57.31h-23.48V43.56h23.48v9.2c6.57-7.38,15.3-11.06,26.2-11.06,8.02,0,14.18,1.22,18.44,3.66l-9.97,20.11h0Z"/>
            <path class="cls-2" d="M1431.63,93.65c0-15.36,4.46-27.84,13.31-37.49,8.85-9.65,20.56-14.46,35.09-14.46,15.3,0,27.16,4.62,35.63,13.89,8.44,9.27,12.67,21.97,12.67,38.07s-4.3,28.77-12.92,38.23c-8.59,9.46-20.4,14.21-35.37,14.21s-27.16-4.78-35.66-14.34c-8.47-9.56-12.73-22.26-12.73-38.1h0ZM1456.06,93.65c0,22.16,7.99,33.26,23.96,33.26,7.34,0,13.15-2.89,17.45-8.66,4.27-5.74,6.41-13.95,6.41-24.6,0-21.87-7.95-32.81-23.86-32.81-7.31,0-13.15,2.89-17.48,8.66-4.3,5.77-6.48,13.82-6.48,24.15h0Z"/>
            <polygon class="cls-2" points="512.04 160.25 654.43 160.25 654.43 302.64 512.04 302.64 512.04 160.25 512.04 160.25"/>
            <polygon class="cls-3" points="668.84 160.25 811.23 160.25 811.23 302.64 668.84 302.64 668.84 160.25 668.84 160.25"/>
            <polygon class="cls-1" points="512.03 3.7 654.42 3.7 654.42 146.09 512.03 146.09 512.03 3.7 512.03 3.7"/>
          </g>
          <path class="cls-5" d="M107.15,302.83H0v-86.28h80.66c13.24,0,23.28-6.42,23.28-18.86s-10.03-18.46-22.88-18.46H22.87l53.38-90.7H0V1.84h214.7l-58.59,105.55c37.32,15.65,61.8,49.36,61.8,92.3,0,60.2-47.36,103.14-110.76,103.14Z"/>
          <path class="cls-8" d="M183.92,302.83v-86.28h105.14c12.84,0,16.86-6.82,16.86-12.44,0-6.02-4.01-12.84-16.45-12.84h-105.55V1.84h207.48v86.68h-115.58v21.27h29.3c63.41,0,102.74,41.34,102.74,96.32s-39.33,96.72-102.74,96.72h-121.2Z"/>
          <g>
            <path class="cls-6" d="M484.08,239.9v9.29c0,1.04-.26,1.89-.78,2.55-.52.66-1.17,1.15-1.94,1.47l-13.18,4.82v26.76l13.18,4.82c.69.24,1.31.7,1.88,1.39.57.69.85,1.53.85,2.55v9.38l-64.6-25.42v-12.24l64.6-25.38ZM459.69,261.12l-21.49,7.86c-.95.39-2.08.79-3.4,1.21-1.31.42-2.73.83-4.24,1.25,1.52.39,2.94.79,4.27,1.21,1.33.42,2.48.82,3.46,1.21l21.4,7.82v-20.55Z"/>
            <path class="cls-6" d="M419.48,160.87h64.6v6.17c0,.95-.16,1.75-.47,2.39-.31.64-.84,1.26-1.59,1.85l-43.07,33.73c1.97-.18,3.78-.27,5.45-.27h39.67v10.59h-64.6v-6.3c0-.51.02-.95.07-1.32.04-.37.13-.7.27-.98s.33-.56.58-.83c.25-.27.59-.57,1.01-.89l43.24-33.86c-1.04.09-2.07.16-3.08.22-1.01.06-1.95.09-2.81.09h-39.27v-10.59Z"/>
            <path class="cls-6" d="M451.78,67.01c4.74,0,9.12.78,13.16,2.35,4.04,1.56,7.53,3.77,10.48,6.63,2.95,2.86,5.25,6.3,6.9,10.32,1.65,4.02,2.48,8.49,2.48,13.4s-.83,9.34-2.48,13.36c-1.65,4.02-3.95,7.47-6.9,10.34-2.95,2.87-6.44,5.1-10.48,6.68-4.04,1.58-8.42,2.37-13.16,2.37s-9.12-.79-13.16-2.37c-4.04-1.58-7.53-3.8-10.48-6.68-2.95-2.87-5.25-6.32-6.9-10.34-1.65-4.02-2.48-8.47-2.48-13.36,0-3.28.38-6.36,1.14-9.25.76-2.89,1.83-5.54,3.22-7.95,1.38-2.41,3.07-4.58,5.05-6.5,1.98-1.92,4.19-3.55,6.63-4.89,2.44-1.34,5.09-2.36,7.95-3.06,2.86-.7,5.87-1.05,9.02-1.05ZM451.78,79.3c-3.54,0-6.72.48-9.54,1.43-2.81.95-5.2,2.31-7.17,4.07-1.97,1.76-3.47,3.89-4.51,6.41-1.04,2.52-1.56,5.35-1.56,8.51s.52,5.99,1.56,8.51c1.04,2.52,2.55,4.66,4.51,6.43,1.97,1.77,4.36,3.13,7.17,4.09,2.81.95,5.99,1.43,9.54,1.43s6.72-.48,9.54-1.43c2.81-.95,5.2-2.32,7.15-4.09,1.95-1.77,3.45-3.92,4.49-6.43,1.04-2.52,1.56-5.35,1.56-8.51s-.52-5.99-1.56-8.51c-1.04-2.52-2.54-4.65-4.49-6.41-1.95-1.76-4.33-3.11-7.15-4.07-2.81-.95-5.99-1.43-9.54-1.43Z"/>
            <path class="cls-6" d="M431.23,4.15c.63.36,1.08.74,1.36,1.14.28.4.42.9.42,1.5,0,.63-.23,1.3-.69,2.03-.46.73-.98,1.6-1.54,2.61-.57,1.01-1.08,2.2-1.54,3.55-.46,1.36-.69,2.96-.69,4.8,0,1.67.2,3.13.6,4.38.4,1.25.96,2.3,1.68,3.15s1.57,1.48,2.57,1.9c1,.42,2.09.63,3.28.63,1.52,0,2.79-.42,3.8-1.27,1.01-.85,1.88-1.97,2.59-3.37s1.36-2.99,1.92-4.78c.57-1.79,1.17-3.62,1.81-5.49.64-1.88,1.39-3.71,2.23-5.49s1.92-3.38,3.22-4.78c1.3-1.4,2.88-2.52,4.76-3.37,1.88-.85,4.16-1.27,6.84-1.27,2.92,0,5.65.5,8.2,1.5,2.55,1,4.77,2.46,6.66,4.38,1.89,1.92,3.38,4.27,4.47,7.04s1.63,5.94,1.63,9.52c0,2.05-.2,4.08-.6,6.08-.4,2-.98,3.91-1.72,5.74-.74,1.83-1.64,3.55-2.68,5.16s-2.2,3.04-3.48,4.29l-5.76-3.53c-.42-.3-.77-.68-1.05-1.16-.28-.48-.42-.98-.42-1.52,0-.74.31-1.55.92-2.41.61-.86,1.29-1.89,2.03-3.08.74-1.19,1.42-2.58,2.03-4.18.61-1.59.92-3.51.92-5.74,0-3.42-.81-6.08-2.44-7.95-1.62-1.88-3.95-2.81-6.99-2.81-1.7,0-3.08.42-4.16,1.27-1.07.85-1.97,1.97-2.7,3.37-.73,1.4-1.35,2.99-1.85,4.78-.51,1.79-1.06,3.6-1.65,5.45-.6,1.85-1.31,3.66-2.14,5.45-.83,1.79-1.92,3.38-3.26,4.78-1.34,1.4-3.02,2.52-5.03,3.37-2.01.85-4.49,1.27-7.44,1.27-2.35,0-4.65-.47-6.88-1.41-2.23-.94-4.21-2.3-5.94-4.09-1.73-1.79-3.11-3.99-4.15-6.61-1.04-2.62-1.56-5.63-1.56-9.02,0-3.81.6-7.33,1.79-10.54,1.19-3.22,2.86-5.96,5-8.22l5.67,2.99Z"/>
          </g>
          <rect class="cls-4" x="1056.13" y="211.56" width="472.37" height="62.93"/>
          <g>
            <path class="cls-6" d="M868.38,248.32c0,2.6-.32,4.96-.97,7.09-.65,2.13-1.63,3.96-2.94,5.48s-2.96,2.71-4.94,3.55c-1.98.84-4.31,1.26-7,1.26-1.21,0-2.41-.06-3.59-.19-1.18-.13-2.41-.34-3.69-.64l.58-6.29c.04-.55.26-1,.66-1.34.39-.34.94-.51,1.65-.51.36,0,.81.06,1.34.18.53.12,1.17.18,1.92.18,1.04,0,1.95-.14,2.73-.43.78-.29,1.42-.77,1.93-1.44.51-.67.89-1.55,1.15-2.64.26-1.09.38-2.43.38-4.03v-29.9h10.8v29.68Z"/>
            <path class="cls-6" d="M885.31,232.06v21.02c0,1.64.37,2.91,1.12,3.8.75.89,1.84,1.34,3.29,1.34,1.09,0,2.1-.22,3.05-.67.95-.45,1.87-1.08,2.76-1.88v-23.61h9.9v33.13h-6.13c-1.24,0-2.04-.55-2.43-1.66l-.61-1.92c-.64.62-1.3,1.18-1.98,1.68-.68.5-1.41.93-2.19,1.28-.78.35-1.61.63-2.51.83-.89.2-1.87.3-2.94.3-1.81,0-3.41-.31-4.81-.94s-2.57-1.51-3.53-2.64c-.96-1.13-1.68-2.46-2.17-3.99-.49-1.53-.74-3.22-.74-5.05v-21.02h9.9Z"/>
            <path class="cls-6" d="M913.1,265.19v-33.13h6.13c.62,0,1.13.14,1.55.42.42.28.71.69.88,1.25l.58,1.92c.64-.6,1.3-1.15,1.98-1.66.68-.51,1.41-.94,2.19-1.29.78-.35,1.62-.63,2.52-.83.9-.2,1.89-.3,2.96-.3,1.81,0,3.41.31,4.81.94,1.39.63,2.57,1.5,3.53,2.62s1.68,2.45,2.17,3.99c.49,1.54.74,3.22.74,5.03v21.05h-9.9v-21.05c0-1.62-.37-2.88-1.12-3.79-.75-.91-1.84-1.36-3.29-1.36-1.09,0-2.11.24-3.07.7-.96.47-1.87,1.1-2.75,1.88v23.61h-9.9Z"/>
            <path class="cls-6" d="M961.79,265.7c-1.58,0-2.97-.23-4.17-.69s-2.21-1.11-3.03-1.95c-.82-.84-1.44-1.86-1.87-3.05-.43-1.19-.64-2.52-.64-3.99v-17.12h-2.81c-.51,0-.95-.16-1.31-.5-.36-.33-.54-.81-.54-1.45v-3.87l5.27-1.02,1.95-8.08c.25-1.02.98-1.53,2.17-1.53h5.18v9.68h8.05v6.77h-8.05v16.45c0,.77.19,1.4.56,1.9.37.5.91.75,1.61.75.36,0,.67-.04.91-.11.24-.07.46-.16.64-.26s.35-.18.51-.26c.16-.07.35-.11.56-.11.3,0,.54.07.72.21s.37.36.56.65l3,4.7c-1.28.96-2.72,1.68-4.31,2.16-1.6.48-3.25.72-4.95.72Z"/>
            <path class="cls-6" d="M990.48,231.55c2.51,0,4.8.39,6.87,1.18,2.07.79,3.84,1.92,5.32,3.39s2.63,3.25,3.45,5.35c.82,2.1,1.23,4.46,1.23,7.08s-.41,5.02-1.23,7.14c-.82,2.12-1.97,3.92-3.45,5.4-1.48,1.48-3.25,2.62-5.32,3.42-2.07.8-4.36,1.2-6.87,1.2s-4.84-.4-6.92-1.2c-2.08-.8-3.87-1.94-5.37-3.42-1.5-1.48-2.66-3.28-3.48-5.4s-1.23-4.5-1.23-7.14.41-4.98,1.23-7.08,1.98-3.88,3.48-5.35,3.29-2.6,5.37-3.39,4.38-1.18,6.92-1.18ZM990.48,258.35c2.28,0,3.96-.8,5.03-2.41,1.08-1.61,1.61-4.05,1.61-7.33s-.54-5.72-1.61-7.32-2.75-2.4-5.03-2.4-4.06.8-5.14,2.4c-1.09,1.6-1.63,4.04-1.63,7.32s.54,5.72,1.63,7.33c1.09,1.61,2.8,2.41,5.14,2.41Z"/>
            <path class="cls-6" d="M1033.03,239.31c-.25.4-.53.69-.81.86-.29.17-.65.26-1.1.26s-.94-.1-1.41-.3-.97-.42-1.52-.66-1.16-.45-1.84-.65-1.46-.3-2.33-.3c-1.26,0-2.22.24-2.89.72s-1.01,1.14-1.01,2c0,.62.22,1.13.66,1.53.44.4,1.02.76,1.74,1.07.72.31,1.54.6,2.46.88.92.28,1.85.59,2.81.93.96.34,1.9.74,2.81,1.2s1.74,1.02,2.46,1.69c.72.67,1.3,1.49,1.74,2.44.44.96.66,2.11.66,3.45,0,1.64-.3,3.15-.89,4.54-.6,1.38-1.49,2.58-2.67,3.58s-2.64,1.78-4.38,2.33-3.73.83-5.99.83c-1.13,0-2.26-.11-3.39-.32-1.13-.21-2.22-.5-3.28-.86-1.05-.36-2.03-.79-2.92-1.29-.89-.5-1.66-1.04-2.3-1.61l2.3-3.64c.28-.43.61-.76.99-1.01.38-.24.88-.37,1.5-.37.58,0,1.09.13,1.55.38.46.26.95.53,1.49.83.53.3,1.15.58,1.87.83.71.25,1.61.38,2.7.38.77,0,1.42-.08,1.95-.24.53-.16.96-.38,1.28-.66.32-.28.55-.58.7-.93.15-.34.22-.69.22-1.05,0-.66-.22-1.2-.67-1.63-.45-.43-1.03-.79-1.76-1.1-.72-.31-1.55-.6-2.48-.86s-1.87-.57-2.83-.91c-.96-.34-1.9-.75-2.83-1.23-.93-.48-1.75-1.09-2.48-1.82s-1.31-1.63-1.76-2.7-.67-2.35-.67-3.87c0-1.41.27-2.74.81-4.01s1.36-2.38,2.44-3.34,2.45-1.72,4.09-2.28,3.56-.85,5.75-.85c1.19,0,2.35.11,3.47.32s2.17.51,3.15.89c.98.38,1.87.84,2.68,1.36.81.52,1.52,1.09,2.14,1.71l-2.24,3.48Z"/>
            <path class="cls-6" d="M1039.23,259.57c0-.68.13-1.31.38-1.9s.62-1.1,1.1-1.53c.48-.44,1.04-.78,1.69-1.04.65-.25,1.38-.38,2.19-.38.96,0,1.79.17,2.49.5.7.33,1.29.78,1.76,1.34.47.56.82,1.21,1.04,1.95.22.74.33,1.51.33,2.32,0,1.07-.17,2.2-.51,3.4-.34,1.2-.85,2.41-1.52,3.63s-1.51,2.41-2.51,3.58c-1,1.17-2.15,2.24-3.45,3.2l-1.73-1.53c-.23-.23-.41-.45-.53-.65-.12-.2-.18-.45-.18-.75,0-.21.08-.44.22-.69.15-.25.33-.46.54-.66.25-.26.55-.56.89-.93.34-.36.68-.77,1.02-1.21s.66-.94.94-1.47c.29-.53.51-1.1.66-1.69-.75-.06-1.42-.24-2.01-.54-.6-.3-1.1-.69-1.52-1.18s-.74-1.05-.97-1.68c-.23-.63-.35-1.31-.35-2.06Z"/>
            <path class="cls-6" d="M1079.93,265.7c-1.58,0-2.97-.23-4.17-.69s-2.21-1.11-3.03-1.95c-.82-.84-1.44-1.86-1.87-3.05-.43-1.19-.64-2.52-.64-3.99v-17.12h-2.81c-.51,0-.95-.16-1.31-.5-.36-.33-.54-.81-.54-1.45v-3.87l5.27-1.02,1.95-8.08c.25-1.02.98-1.53,2.17-1.53h5.18v9.68h8.05v6.77h-8.05v16.45c0,.77.19,1.4.56,1.9.37.5.91.75,1.61.75.36,0,.67-.04.91-.11.24-.07.46-.16.64-.26s.35-.18.51-.26c.16-.07.35-.11.56-.11.3,0,.54.07.72.21s.37.36.56.65l3,4.7c-1.28.96-2.72,1.68-4.31,2.16-1.6.48-3.25.72-4.95.72Z"/>
            <path class="cls-6" d="M1093.86,265.19v-33.13h5.88c.49,0,.9.04,1.23.13.33.09.61.22.83.4.22.18.39.42.51.72.12.3.22.66.3,1.09l.54,3.1c1.21-1.87,2.58-3.35,4.09-4.44,1.51-1.09,3.16-1.63,4.95-1.63,1.51,0,2.73.36,3.64,1.09l-1.28,7.28c-.08.45-.25.76-.51.94-.26.18-.6.27-1.02.27-.36,0-.79-.05-1.28-.14-.49-.1-1.11-.14-1.85-.14-2.6,0-4.64,1.38-6.13,4.15v20.32h-9.9Z"/>
            <path class="cls-6" d="M1142.48,265.19c-.94,0-1.65-.13-2.12-.38-.48-.25-.88-.79-1.2-1.6l-.7-1.82c-.83.7-1.63,1.32-2.4,1.85-.77.53-1.56.99-2.38,1.36s-1.69.65-2.62.83c-.93.18-1.96.27-3.08.27-1.51,0-2.89-.2-4.12-.59-1.24-.4-2.28-.98-3.15-1.75-.86-.77-1.53-1.73-2-2.87-.47-1.14-.7-2.46-.7-3.96,0-1.17.3-2.38.89-3.62.6-1.24,1.63-2.37,3.1-3.38,1.47-1.02,3.45-1.86,5.94-2.55,2.49-.68,5.63-1.03,9.42-1.03v-1.42c0-1.96-.4-3.37-1.2-4.24-.8-.87-1.93-1.31-3.4-1.31-1.17,0-2.13.13-2.88.38-.75.26-1.41.54-2,.86s-1.16.61-1.71.86c-.55.25-1.21.38-1.98.38-.68,0-1.26-.17-1.74-.5-.48-.33-.86-.74-1.13-1.23l-1.79-3.1c2-1.77,4.22-3.08,6.66-3.95s5.05-1.29,7.84-1.29c2,0,3.81.33,5.42.97,1.61.65,2.97,1.55,4.09,2.72s1.98,2.54,2.57,4.14c.6,1.6.89,3.34.89,5.24v20.7h-4.54ZM1131.11,259.15c1.28,0,2.4-.22,3.35-.67.96-.45,1.93-1.17,2.91-2.17v-4.54c-1.98,0-3.61.13-4.89.39-1.28.26-2.29.58-3.03.97-.75.39-1.26.83-1.55,1.32s-.43,1.03-.43,1.61c0,1.14.31,1.94.93,2.4.62.46,1.52.69,2.72.69Z"/>
            <path class="cls-6" d="M1154.04,265.19v-33.13h6.13c.62,0,1.13.14,1.55.42.42.28.71.69.88,1.25l.58,1.92c.64-.6,1.3-1.15,1.98-1.66.68-.51,1.41-.94,2.19-1.29.78-.35,1.62-.63,2.52-.83.9-.2,1.89-.3,2.96-.3,1.81,0,3.41.31,4.81.94,1.39.63,2.57,1.5,3.53,2.62s1.68,2.45,2.17,3.99c.49,1.54.74,3.22.74,5.03v21.05h-9.9v-21.05c0-1.62-.37-2.88-1.12-3.79-.75-.91-1.84-1.36-3.29-1.36-1.09,0-2.11.24-3.07.7-.96.47-1.87,1.1-2.75,1.88v23.61h-9.9Z"/>
            <path class="cls-6" d="M1211.36,239.31c-.25.4-.53.69-.81.86-.29.17-.65.26-1.1.26s-.94-.1-1.41-.3-.97-.42-1.52-.66-1.16-.45-1.84-.65-1.46-.3-2.33-.3c-1.26,0-2.22.24-2.89.72s-1.01,1.14-1.01,2c0,.62.22,1.13.66,1.53.44.4,1.02.76,1.74,1.07.72.31,1.54.6,2.46.88.92.28,1.85.59,2.81.93.96.34,1.9.74,2.81,1.2s1.74,1.02,2.46,1.69c.72.67,1.3,1.49,1.74,2.44.44.96.66,2.11.66,3.45,0,1.64-.3,3.15-.89,4.54-.6,1.38-1.49,2.58-2.67,3.58s-2.64,1.78-4.38,2.33-3.73.83-5.99.83c-1.13,0-2.26-.11-3.39-.32-1.13-.21-2.22-.5-3.28-.86-1.05-.36-2.03-.79-2.92-1.29-.89-.5-1.66-1.04-2.3-1.61l2.3-3.64c.28-.43.61-.76.99-1.01.38-.24.88-.37,1.5-.37.58,0,1.09.13,1.55.38.46.26.95.53,1.49.83.53.3,1.15.58,1.87.83.71.25,1.61.38,2.7.38.77,0,1.42-.08,1.95-.24.53-.16.96-.38,1.28-.66.32-.28.55-.58.7-.93.15-.34.22-.69.22-1.05,0-.66-.22-1.2-.67-1.63-.45-.43-1.03-.79-1.76-1.1-.72-.31-1.55-.6-2.48-.86s-1.87-.57-2.83-.91c-.96-.34-1.9-.75-2.83-1.23-.93-.48-1.75-1.09-2.48-1.82s-1.31-1.63-1.76-2.7-.67-2.35-.67-3.87c0-1.41.27-2.74.81-4.01s1.36-2.38,2.44-3.34,2.45-1.72,4.09-2.28,3.56-.85,5.75-.85c1.19,0,2.35.11,3.47.32s2.17.51,3.15.89c.98.38,1.87.84,2.68,1.36.81.52,1.52,1.09,2.14,1.71l-2.24,3.48Z"/>
            <path class="cls-6" d="M1220.68,265.19v-26.32l-2.17-.45c-.75-.17-1.35-.44-1.8-.8-.46-.36-.69-.89-.69-1.6v-3.9h4.67v-1.88c0-1.9.3-3.61.91-5.14.61-1.53,1.48-2.84,2.62-3.93s2.53-1.93,4.17-2.52c1.64-.6,3.5-.89,5.59-.89.81,0,1.56.05,2.25.14.69.1,1.41.25,2.16.46l-.19,4.82c-.02.34-.11.62-.27.85-.16.22-.36.4-.59.54-.24.14-.5.24-.78.3-.29.06-.57.1-.85.1-.87,0-1.65.08-2.33.26s-1.25.47-1.71.91-.8,1.01-1.04,1.73c-.24.71-.35,1.61-.35,2.7v1.57h7.79v6.77h-7.48v26.29h-9.9Z"/>
            <path class="cls-6" d="M1257.1,231.55c2.51,0,4.8.39,6.87,1.18,2.07.79,3.84,1.92,5.32,3.39s2.63,3.25,3.45,5.35c.82,2.1,1.23,4.46,1.23,7.08s-.41,5.02-1.23,7.14c-.82,2.12-1.97,3.92-3.45,5.4-1.48,1.48-3.25,2.62-5.32,3.42-2.07.8-4.36,1.2-6.87,1.2s-4.84-.4-6.92-1.2c-2.08-.8-3.87-1.94-5.37-3.42-1.5-1.48-2.66-3.28-3.48-5.4s-1.23-4.5-1.23-7.14.41-4.98,1.23-7.08,1.98-3.88,3.48-5.35,3.29-2.6,5.37-3.39,4.38-1.18,6.92-1.18ZM1257.1,258.35c2.28,0,3.96-.8,5.03-2.41,1.08-1.61,1.61-4.05,1.61-7.33s-.54-5.72-1.61-7.32-2.75-2.4-5.03-2.4-4.06.8-5.14,2.4c-1.09,1.6-1.63,4.04-1.63,7.32s.54,5.72,1.63,7.33c1.09,1.61,2.8,2.41,5.14,2.41Z"/>
            <path class="cls-6" d="M1279.4,265.19v-33.13h5.88c.49,0,.9.04,1.23.13.33.09.61.22.83.4.22.18.39.42.51.72.12.3.22.66.3,1.09l.54,3.1c1.21-1.87,2.58-3.35,4.09-4.44,1.51-1.09,3.16-1.63,4.95-1.63,1.51,0,2.73.36,3.64,1.09l-1.28,7.28c-.08.45-.25.76-.51.94-.26.18-.6.27-1.02.27-.36,0-.79-.05-1.28-.14-.49-.1-1.11-.14-1.85-.14-2.6,0-4.64,1.38-6.13,4.15v20.32h-9.9Z"/>
            <path class="cls-6" d="M1305.79,265.19v-33.13h6.13c.62,0,1.13.14,1.55.42.42.28.71.69.88,1.25l.54,1.79c.55-.58,1.13-1.1,1.73-1.58.6-.48,1.24-.89,1.93-1.25.69-.35,1.44-.63,2.24-.83s1.68-.3,2.64-.3c2,0,3.66.52,4.97,1.55s2.3,2.41,2.99,4.14c.55-1.02,1.23-1.9,2.03-2.62.8-.72,1.66-1.31,2.59-1.76s1.91-.78,2.94-.99c1.03-.21,2.06-.32,3.08-.32,1.9,0,3.58.28,5.05.85s2.7,1.38,3.69,2.46c.99,1.08,1.74,2.4,2.25,3.96s.77,3.34.77,5.32v21.05h-9.9v-21.05c0-3.43-1.47-5.14-4.41-5.14-1.34,0-2.46.44-3.34,1.33-.88.88-1.33,2.16-1.33,3.82v21.05h-9.9v-21.05c0-1.89-.37-3.23-1.12-3.99-.75-.77-1.84-1.15-3.29-1.15-.89,0-1.74.2-2.54.61-.8.41-1.55.95-2.25,1.63v23.96h-9.9Z"/>
            <path class="cls-6" d="M1383.68,265.19c-.94,0-1.65-.13-2.12-.38-.48-.25-.88-.79-1.2-1.6l-.7-1.82c-.83.7-1.63,1.32-2.4,1.85-.77.53-1.56.99-2.38,1.36s-1.69.65-2.62.83c-.93.18-1.96.27-3.08.27-1.51,0-2.89-.2-4.12-.59-1.24-.4-2.28-.98-3.15-1.75-.86-.77-1.53-1.73-2-2.87-.47-1.14-.7-2.46-.7-3.96,0-1.17.3-2.38.89-3.62.6-1.24,1.63-2.37,3.1-3.38,1.47-1.02,3.45-1.86,5.94-2.55,2.49-.68,5.63-1.03,9.42-1.03v-1.42c0-1.96-.4-3.37-1.2-4.24-.8-.87-1.93-1.31-3.4-1.31-1.17,0-2.13.13-2.88.38-.75.26-1.41.54-2,.86s-1.16.61-1.71.86c-.55.25-1.21.38-1.98.38-.68,0-1.26-.17-1.74-.5-.48-.33-.86-.74-1.13-1.23l-1.79-3.1c2-1.77,4.22-3.08,6.66-3.95s5.05-1.29,7.84-1.29c2,0,3.81.33,5.42.97,1.61.65,2.97,1.55,4.09,2.72s1.98,2.54,2.57,4.14c.6,1.6.89,3.34.89,5.24v20.7h-4.54ZM1372.3,259.15c1.28,0,2.4-.22,3.35-.67.96-.45,1.93-1.17,2.91-2.17v-4.54c-1.98,0-3.61.13-4.89.39-1.28.26-2.29.58-3.03.97-.75.39-1.26.83-1.55,1.32s-.43,1.03-.43,1.61c0,1.14.31,1.94.93,2.4.62.46,1.52.69,2.72.69Z"/>
            <path class="cls-6" d="M1395.24,265.19v-33.13h6.13c.62,0,1.13.14,1.55.42.42.28.71.69.88,1.25l.54,1.79c.55-.58,1.13-1.1,1.73-1.58.6-.48,1.24-.89,1.93-1.25.69-.35,1.44-.63,2.24-.83s1.68-.3,2.64-.3c2,0,3.66.52,4.97,1.55s2.3,2.41,2.99,4.14c.55-1.02,1.23-1.9,2.03-2.62.8-.72,1.66-1.31,2.59-1.76s1.91-.78,2.94-.99c1.03-.21,2.06-.32,3.08-.32,1.9,0,3.58.28,5.05.85s2.7,1.38,3.69,2.46c.99,1.08,1.74,2.4,2.25,3.96s.77,3.34.77,5.32v21.05h-9.9v-21.05c0-3.43-1.47-5.14-4.41-5.14-1.34,0-2.46.44-3.34,1.33-.88.88-1.33,2.16-1.33,3.82v21.05h-9.9v-21.05c0-1.89-.37-3.23-1.12-3.99-.75-.77-1.84-1.15-3.29-1.15-.89,0-1.74.2-2.54.61-.8.41-1.55.95-2.25,1.63v23.96h-9.9Z"/>
            <path class="cls-6" d="M1465.01,231.55c2.51,0,4.8.39,6.87,1.18,2.07.79,3.84,1.92,5.32,3.39s2.63,3.25,3.45,5.35c.82,2.1,1.23,4.46,1.23,7.08s-.41,5.02-1.23,7.14c-.82,2.12-1.97,3.92-3.45,5.4-1.48,1.48-3.25,2.62-5.32,3.42-2.07.8-4.36,1.2-6.87,1.2s-4.84-.4-6.92-1.2c-2.08-.8-3.87-1.94-5.37-3.42-1.5-1.48-2.66-3.28-3.48-5.4s-1.23-4.5-1.23-7.14.41-4.98,1.23-7.08,1.98-3.88,3.48-5.35,3.29-2.6,5.37-3.39,4.38-1.18,6.92-1.18ZM1465.01,258.35c2.28,0,3.96-.8,5.03-2.41,1.08-1.61,1.61-4.05,1.61-7.33s-.54-5.72-1.61-7.32-2.75-2.4-5.03-2.4-4.06.8-5.14,2.4c-1.09,1.6-1.63,4.04-1.63,7.32s.54,5.72,1.63,7.33c1.09,1.61,2.8,2.41,5.14,2.41Z"/>
            <path class="cls-6" d="M1507.57,239.31c-.25.4-.53.69-.81.86-.29.17-.65.26-1.1.26s-.94-.1-1.41-.3-.97-.42-1.52-.66-1.16-.45-1.84-.65-1.46-.3-2.33-.3c-1.26,0-2.22.24-2.89.72s-1.01,1.14-1.01,2c0,.62.22,1.13.66,1.53.44.4,1.02.76,1.74,1.07.72.31,1.54.6,2.46.88.92.28,1.85.59,2.81.93.96.34,1.9.74,2.81,1.2s1.74,1.02,2.46,1.69c.72.67,1.3,1.49,1.74,2.44.44.96.66,2.11.66,3.45,0,1.64-.3,3.15-.89,4.54-.6,1.38-1.49,2.58-2.67,3.58s-2.64,1.78-4.38,2.33-3.73.83-5.99.83c-1.13,0-2.26-.11-3.39-.32-1.13-.21-2.22-.5-3.28-.86-1.05-.36-2.03-.79-2.92-1.29-.89-.5-1.66-1.04-2.3-1.61l2.3-3.64c.28-.43.61-.76.99-1.01.38-.24.88-.37,1.5-.37.58,0,1.09.13,1.55.38.46.26.95.53,1.49.83.53.3,1.15.58,1.87.83.71.25,1.61.38,2.7.38.77,0,1.42-.08,1.95-.24.53-.16.96-.38,1.28-.66.32-.28.55-.58.7-.93.15-.34.22-.69.22-1.05,0-.66-.22-1.2-.67-1.63-.45-.43-1.03-.79-1.76-1.1-.72-.31-1.55-.6-2.48-.86s-1.87-.57-2.83-.91c-.96-.34-1.9-.75-2.83-1.23-.93-.48-1.75-1.09-2.48-1.82s-1.31-1.63-1.76-2.7-.67-2.35-.67-3.87c0-1.41.27-2.74.81-4.01s1.36-2.38,2.44-3.34,2.45-1.72,4.09-2.28,3.56-.85,5.75-.85c1.19,0,2.35.11,3.47.32s2.17.51,3.15.89c.98.38,1.87.84,2.68,1.36.81.52,1.52,1.09,2.14,1.71l-2.24,3.48Z"/>
            <path class="cls-6" d="M1517.98,260.17c0-.77.14-1.48.43-2.14.29-.66.68-1.24,1.18-1.73.5-.49,1.09-.88,1.77-1.17.68-.29,1.43-.43,2.24-.43s1.52.14,2.21.43c.68.29,1.28.68,1.79,1.17.51.49.91,1.07,1.2,1.73.29.66.43,1.37.43,2.14s-.14,1.49-.43,2.16c-.29.67-.69,1.25-1.2,1.74-.51.49-1.11.87-1.79,1.15-.68.28-1.42.42-2.21.42s-1.55-.14-2.24-.42c-.68-.28-1.27-.66-1.77-1.15-.5-.49-.89-1.07-1.18-1.74-.29-.67-.43-1.39-.43-2.16ZM1528.33,218.64v18.27c0,1.96-.12,3.9-.35,5.83-.23,1.93-.54,3.89-.93,5.89h-6.71c-.38-2-.69-3.97-.93-5.89-.23-1.93-.35-3.87-.35-5.83v-18.27h9.26Z"/>
          </g>
        </g>
      </g>
    </g>
  </g>
</svg>